<?xml version="1.0" standalone="no"?>
<!DOCTYPE svg PUBLIC "-//W3C//DTD SVG 20010904//EN"
 "http://www.w3.org/TR/2001/REC-SVG-20010904/DTD/svg10.dtd">
<svg version="1.0" xmlns="http://www.w3.org/2000/svg"
 width="448.000000pt" height="448.000000pt" viewBox="0 0 448.000000 448.000000"
 preserveAspectRatio="xMidYMid meet">
<metadata>
Created by potrace 1.14, written by Peter Selinger 2001-2017
</metadata>
<g transform="translate(0.000000,448.000000) scale(0.100000,-0.100000)"
fill="#000000" stroke="none">
<path d="M2715 4453 c-91 -4 -285 -26 -385 -43 -30 -5 -73 -12 -95 -15 -143
-20 -448 -119 -625 -203 -107 -50 -291 -149 -300 -161 -3 -4 -23 -18 -45 -31
-22 -13 -42 -27 -45 -30 -3 -3 -18 -14 -35 -24 -41 -26 -168 -129 -235 -191
-228 -210 -366 -384 -519 -648 -45 -80 -104 -194 -106 -207 0 -3 -13 -32 -29
-65 -98 -207 -204 -597 -231 -855 -4 -36 -9 -73 -11 -84 -6 -34 -17 -251 -17
-356 -2 -289 56 -556 170 -785 159 -321 462 -562 788 -630 131 -27 163 -30
305 -29 307 2 540 95 763 304 98 91 220 258 292 397 20 40 40 73 45 73 4 0 10
-17 13 -37 13 -85 36 -171 48 -179 5 -3 9 -15 9 -27 0 -12 11 -42 25 -66 14
-23 25 -49 25 -57 0 -8 5 -14 10 -14 6 0 10 -4 10 -9 0 -31 106 -157 195 -231
66 -55 211 -117 329 -141 64 -14 295 -19 344 -9 20 5 57 11 82 14 94 13 243
65 302 107 14 11 31 19 36 19 6 0 17 6 24 12 7 7 48 39 90 71 82 60 257 229
349 335 105 122 146 236 136 384 -8 126 -21 160 -72 194 -66 43 -145 16 -225
-76 -85 -99 -306 -320 -318 -320 -7 0 -12 -4 -12 -9 0 -17 -156 -101 -215
-116 -63 -15 -183 -14 -227 3 -49 19 -108 53 -108 62 0 4 -9 16 -20 28 -27 29
-53 91 -75 182 -26 103 -26 398 0 580 2 14 6 52 10 85 4 32 8 66 10 75 1 8 6
38 9 65 4 28 10 66 12 85 7 46 73 411 79 430 2 8 6 31 9 50 3 19 15 80 26 135
22 103 24 113 34 155 3 14 8 36 10 50 2 14 12 57 21 95 9 39 18 77 20 86 2 9
8 33 14 55 90 325 103 429 66 508 -41 87 -169 135 -346 131 -179 -4 -274 -47
-324 -145 -26 -52 -52 -156 -79 -314 -3 -16 -10 -52 -16 -80 -6 -28 -12 -60
-14 -71 -65 -332 -232 -964 -322 -1220 -177 -501 -362 -797 -587 -939 -121
-76 -219 -107 -354 -111 -171 -5 -293 43 -409 161 -114 116 -181 269 -220 499
-13 79 -14 507 -1 565 3 14 8 52 12 85 10 97 53 291 91 413 152 489 370 816
721 1080 376 283 803 394 1374 358 59 -4 117 -9 130 -11 13 -2 44 -6 69 -9 85
-11 324 -57 425 -82 42 -11 107 -12 147 -2 24 5 48 11 54 12 14 2 76 49 110
83 30 30 83 113 89 140 2 10 8 32 13 48 12 40 8 121 -7 167 -19 59 -68 93
-178 127 -123 37 -211 58 -327 76 -21 4 -47 8 -58 10 -11 3 -46 7 -77 10 -31
3 -72 8 -91 11 -82 13 -437 23 -585 17z"/>
</g>
</svg>
